<svg xmlns="http://www.w3.org/2000/svg" width="100" height="100" viewBox="0 0 100 100">
  <style>
    .svg-coffee {
      fill: #008000;
    }
    .svg-steam {
      fill: #008000;
      opacity: 0.7;
    }
    .svg-bean {
      fill: #6b4423;
    }
    @media (prefers-color-scheme: dark) {
      .svg-coffee {
        fill: #00a000;
      }
      .svg-steam {
        fill: #00a000;
        opacity: 0.9;
      }
    }
  </style>
  
  <!-- Coffee Cup -->
  <path class="svg-coffee" d="M30,50 C30,40 35,35 40,30 L60,30 C65,35 70,40 70,50 L70,75 C70,80 65,85 60,85 L40,85 C35,85 30,80 30,75 Z"/>
  
  <!-- Cup Handle -->
  <path class="svg-coffee" d="M70,55 C80,55 85,60 85,65 C85,70 80,75 70,75 L70,70 C75,70 80,67.5 80,65 C80,62.5 75,60 70,60 Z"/>
  
  <!-- Steam -->
  <path class="svg-steam" d="M45,30 C45,25 50,20 45,15 C40,12 38,8 45,5 C47,15 55,10 50,20 C47,23 47,25 45,30 Z"/>
  <path class="svg-steam" d="M55,30 C55,25 60,20 55,15 C50,12 48,8 55,5 C57,15 65,10 60,20 C57,23 57,25 55,30 Z"/>
  
  <!-- Coffee Beans -->
  <ellipse class="svg-bean" cx="45" cy="65" rx="5" ry="7" transform="rotate(-30 45 65)"/>
  <ellipse class="svg-bean" cx="55" cy="55" rx="5" ry="7" transform="rotate(30 55 55)"/>
</svg>